<?xml version="1.0" encoding="UTF-8"?>
<svg width="40px" height="24px" viewBox="0 0 40 24" version="1.1" xmlns="http://www.w3.org/2000/svg" xmlns:xlink="http://www.w3.org/1999/xlink">
    <!-- Generator: Sketch 59.1 (86144) - https://sketch.com -->
    <title>Shape</title>
    <desc>Created with Sketch.</desc>
    <g id="🚀-Funnel-3" stroke="none" stroke-width="1" fill="none" fill-rule="evenodd">
        <g id="Funnel3__HIWP_3" transform="translate(-700.000000, -642.000000)" fill="#000000" fill-rule="nonzero">
            <g id="Options-Copy" transform="translate(408.000000, 612.000000)">
                <g id="Option" transform="translate(218.000000, 0.000000)">
                    <path d="M109.652174,30 L78.3478261,30 C75.9477799,30.0028338 74.0028749,31.9199544 74,34.2857143 L74,49.7142857 C74.0028749,52.0800456 75.9477799,53.9971662 78.3478261,54 L109.652174,54 C112.05222,53.9971662 113.997125,52.0800456 114,49.7142857 L114,34.2857143 C113.997125,31.9199544 112.05222,30.0028338 109.652174,30 L109.652174,30 Z M78.3478261,31.7142857 L109.652174,31.7142857 C111.092917,31.7142857 112.26087,32.8655535 112.26087,34.2857143 L112.26087,34.6337143 L94,44.4522857 L75.7391304,34.6337143 L75.7391304,34.2857143 C75.7391304,32.8655535 76.9070833,31.7142857 78.3478261,31.7142857 Z M93.5834783,46.1811429 C93.8430913,46.320783 94.1569087,46.320783 94.4165217,46.1811429 L98.3478261,44.0682857 L106.683478,52.2857143 L81.3165217,52.2857143 L89.6521739,44.0682857 L93.5834783,46.1811429 Z M75.7391304,49.7142857 L75.7391304,36.5871429 L88.0617391,43.2128571 L78.8573913,52.2857143 L78.3478261,52.2857143 C76.9070833,52.2857143 75.7391304,51.1344465 75.7391304,49.7142857 Z M109.652174,52.2857143 L109.142609,52.2857143 L99.9382609,43.2128571 L112.26087,36.5871429 L112.26087,49.7142857 C112.26087,51.1344465 111.092917,52.2857143 109.652174,52.2857143 Z" id="Shape"></path>
                </g>
            </g>
        </g>
    </g>
</svg>