<?xml version="1.0" encoding="UTF-8"?>
<svg width="24px" height="40px" viewBox="0 0 24 40" version="1.1" xmlns="http://www.w3.org/2000/svg" xmlns:xlink="http://www.w3.org/1999/xlink">
    <!-- Generator: Sketch 59.1 (86144) - https://sketch.com -->
    <title>picture</title>
    <desc>Created with Sketch.</desc>
    <g id="🚀-Funnel-3" stroke="none" stroke-width="1" fill="none" fill-rule="evenodd">
        <g id="Funnel3__HIWP_3" transform="translate(-490.000000, -634.000000)" fill="#000000" fill-rule="nonzero">
            <g id="Options-Copy" transform="translate(408.000000, 612.000000)">
                <g id="Option">
                    <g id="picture" transform="translate(82.000000, 22.000000)">
                        <path d="M21.3333333,40 C22.8060927,40 24,38.8060927 24,37.3333333 L24,2.66666667 C24,1.19390733 22.8060927,0 21.3333333,0 L2.66666667,0 C1.19390733,0 0,1.19390733 0,2.66666667 L0,37.3333333 C0,38.8060927 1.19390733,40 2.66666667,40 L21.3333333,40 Z M17.128,1.33333333 L16.2733333,2.24533333 C16.020736,2.51379661 15.668616,2.66622117 15.3,2.66666667 L8.7,2.66666667 C8.3314838,2.66666667 7.9793984,2.51415925 7.72733333,2.24533333 L6.87266667,1.33333333 L17.128,1.33333333 Z M1.33333333,2.66666667 C1.33333333,1.930287 1.930287,1.33333333 2.66666667,1.33333333 L5.04466667,1.33333333 L6.75466667,3.15666667 C7.25919573,3.69383333 7.9630492,3.99896513 8.7,4 L15.3,4 C16.0369343,3.99860942 16.7407787,3.69382721 17.246,3.15733333 L18.9553333,1.33333333 L21.3333333,1.33333333 C22.069713,1.33333333 22.6666667,1.930287 22.6666667,2.66666667 L22.6666667,34 C22.6666667,34.7363797 22.069713,35.3333333 21.3333333,35.3333333 L2.66666667,35.3333333 C1.930287,35.3333333 1.33333333,34.7363797 1.33333333,34 L1.33333333,2.66666667 Z M1.33333333,37.3333333 L1.33333333,36.296 C1.73689769,36.5359494 2.19716451,36.6639036 2.66666667,36.6666667 L21.3333333,36.6666667 C21.8028355,36.6639036 22.2631023,36.5359494 22.6666667,36.296 L22.6666667,37.3333333 C22.6666667,38.069713 22.069713,38.6666667 21.3333333,38.6666667 L2.66666667,38.6666667 C1.930287,38.6666667 1.33333333,38.069713 1.33333333,37.3333333 Z" id="Shape"></path>
                        <path d="M4.66666667,24.6666667 L19.3333333,24.6666667 C20.4379028,24.6666667 21.3333333,23.7712361 21.3333333,22.6666667 L21.3333333,7.33333333 C21.3333333,6.22876383 20.4379028,5.33333333 19.3333333,5.33333333 L4.66666667,5.33333333 C3.56209717,5.33333333 2.66666667,6.22876383 2.66666667,7.33333333 L2.66666667,22.6666667 C2.66666667,23.7712361 3.56209717,24.6666667 4.66666667,24.6666667 Z M4,7.33333333 C4,6.96514353 4.29847683,6.66666667 4.66666667,6.66666667 L19.3333333,6.66666667 C19.7015231,6.66666667 20,6.96514353 20,7.33333333 L20,22.6666667 C20,23.0348565 19.7015231,23.3333333 19.3333333,23.3333333 L4.66666667,23.3333333 C4.29847683,23.3333333 4,23.0348565 4,22.6666667 L4,7.33333333 Z" id="Shape"></path>
                        <path d="M6.62533333,21.9946667 C6.99054807,22.0402147 7.3235808,21.7811892 7.36933333,21.416 C7.66111647,19.0805355 9.646379,17.3278694 12,17.3278694 C14.353621,17.3278694 16.3388835,19.0805355 16.6306667,21.416 C16.6723179,21.7493065 16.9554347,21.9995693 17.2913333,22.0000144 C17.3192023,22.0001949 17.3470499,21.9984126 17.3746667,21.9946667 C17.7398559,21.9489141 17.9988813,21.6158814 17.9533333,21.2506667 C17.7021581,19.2629648 16.4754295,17.5317895 14.6833333,16.636 C15.5095351,16.0109525 15.9965216,15.0359931 16,14 L16,12 C15.9977959,10.1599645 14.5067021,8.66887073 12.6666667,8.66666667 L11.3333333,8.66666667 C9.49329787,8.66887073 8.00220407,10.1599645 8,12 L8,14 C8.0034784,15.0359931 8.49046493,16.0109525 9.31666667,16.636 C7.52457047,17.5317895 6.29784196,19.2629648 6.04666667,21.2506667 C6.00111868,21.6158814 6.26014417,21.9489141 6.62533333,21.9946667 L6.62533333,21.9946667 Z M11.3333333,16 C10.2287639,16 9.33333333,15.1045695 9.33333333,14 L9.33333333,12 C9.33333333,10.8954305 10.2287639,10 11.3333333,10 L12.6666667,10 C13.7712361,10 14.6666667,10.8954305 14.6666667,12 L14.6666667,14 C14.6666667,15.1045695 13.7712361,16 12.6666667,16 L11.3333333,16 Z" id="Shape"></path>
                        <path d="M12,26.6666667 C10.1590509,26.6666667 8.66666667,28.1590509 8.66666667,30 C8.66666667,31.8409491 10.1590509,33.3333333 12,33.3333333 C13.8409491,33.3333333 15.3333333,31.8409491 15.3333333,30 C15.3311293,28.1599645 13.8400355,26.6688707 12,26.6666667 Z M12,32 C10.8954305,32 10,31.1045695 10,30 C10,28.8954305 10.8954305,28 12,28 C13.1045695,28 14,28.8954305 14,30 C14,31.1045695 13.1045695,32 12,32 Z" id="Shape"></path>
                        <path d="M5.33333333,28 C4.22876383,28 3.33333333,28.8954305 3.33333333,30 C3.33333333,31.1045695 4.22876383,32 5.33333333,32 C6.43790283,32 7.33333333,31.1045695 7.33333333,30 C7.33333333,28.8954305 6.43790283,28 5.33333333,28 Z M5.33333333,30.6666667 C4.9651435,30.6666667 4.66666667,30.3681898 4.66666667,30 C4.66666667,29.6318102 4.9651435,29.3333333 5.33333333,29.3333333 C5.70152317,29.3333333 6,29.6318102 6,30 C6,30.3681898 5.70152317,30.6666667 5.33333333,30.6666667 Z" id="Shape"></path>
                        <path d="M18.6666667,28 C17.5620972,28 16.6666667,28.8954305 16.6666667,30 C16.6666667,31.1045695 17.5620972,32 18.6666667,32 C19.7712361,32 20.6666667,31.1045695 20.6666667,30 C20.6666667,28.8954305 19.7712361,28 18.6666667,28 Z M18.6666667,30.6666667 C18.2984769,30.6666667 18,30.3681898 18,30 C18,29.6318102 18.2984769,29.3333333 18.6666667,29.3333333 C19.0348565,29.3333333 19.3333333,29.6318102 19.3333333,30 C19.3333333,30.3681898 19.0348565,30.6666667 18.6666667,30.6666667 Z" id="Shape"></path>
                    </g>
                </g>
            </g>
        </g>
    </g>
</svg>