<?xml version="1.0" encoding="UTF-8"?>
<svg width="27px" height="28px" viewBox="0 0 27 28" version="1.1" xmlns="http://www.w3.org/2000/svg" xmlns:xlink="http://www.w3.org/1999/xlink">
    <!-- Generator: Sketch 59.1 (86144) - https://sketch.com -->
    <title>Shape</title>
    <desc>Created with Sketch.</desc>
    <g id="🚀-Funnel-3" stroke="none" stroke-width="1" fill="none" fill-rule="evenodd" opacity="0.400000006">
        <g id="Funnel3__extended__HIWP_3" transform="translate(-707.000000, -407.000000)" fill="#FFFFFF" fill-rule="nonzero">
            <g id="Group-2" transform="translate(518.000000, 336.000000)">
                <g id="noun_Upload_2472313" transform="translate(25.000000, 71.000000)">
                    <path d="M191,21.6000009 L191,25.200001 C191,26.358001 190.058001,27.3000011 188.900001,27.3000011 L166.1,27.3000011 C164.942,27.3000011 164,26.358001 164,25.200001 L164,21.6000009 C164,20.4420008 164.942,19.5000008 166.1,19.5000008 C167.258,19.5000008 168.2,20.4420008 168.2,21.6000009 L168.2,23.1000009 L186.800001,23.1000009 L186.800001,21.6000009 C186.800001,20.4420008 187.742001,19.5000008 188.900001,19.5000008 C190.058001,19.5000008 191,20.4420008 191,21.6000009 Z M174.239,9.25200037 L175.4,8.09100032 L175.4,17.4000007 C175.4,18.5580007 176.342,19.5000008 177.500001,19.5000008 C178.658001,19.5000008 179.600001,18.5580007 179.600001,17.4000007 L179.600001,8.09100032 L180.761001,9.25200037 C181.160001,9.65100038 181.691001,9.87000039 182.258001,9.87000039 C182.822001,9.87000039 183.353001,9.65100038 183.755001,9.25200037 L183.755001,9.25200037 C184.580001,8.42700033 184.580001,7.08600028 183.755001,6.26100025 L177.968001,0.477000019 C177.839001,0.348000014 177.668001,0.291000012 177.500001,0.300000012 C177.332001,0.288000011 177.161001,0.345000014 177.032001,0.474000019 L171.248,6.26100025 C170.423,7.08600028 170.423,8.42700033 171.248,9.25200037 C172.073,10.0770004 173.414,10.0770004 174.239,9.25200037 Z" id="Shape"></path>
                </g>
            </g>
        </g>
    </g>
</svg>