<?xml version="1.0" encoding="UTF-8"?>
<svg width="36px" height="36px" viewBox="0 0 36 36" version="1.1" xmlns="http://www.w3.org/2000/svg" xmlns:xlink="http://www.w3.org/1999/xlink">
    <!-- Generator: Sketch 59.1 (86144) - https://sketch.com -->
    <title>whatsapp</title>
    <desc>Created with Sketch.</desc>
    <g id="🚀-Funnel-3" stroke="none" stroke-width="1" fill="none" fill-rule="evenodd">
        <g id="Funnel3__HIWP_3" transform="translate(-921.000000, -634.000000)" fill-rule="nonzero">
            <g id="Options-Copy" transform="translate(408.000000, 612.000000)">
                <g id="Option-Copy" transform="translate(437.000000, 0.000000)">
                    <g id="whatsapp" transform="translate(76.000000, 22.000000)">
                        <path d="M18.0045,0 L17.9955,0 L17.9955,0 C8.07075,0 0,8.073 0,18 C0,21.9375 1.269,25.587 3.42675,28.55025 L1.1835,35.23725 L8.10225,33.0255 C10.9485,34.911 14.34375,36 18.0045,36 C27.92925,36 36,27.92475 36,18 C36,8.07525 27.92925,0 18.0045,0 Z" id="Path" fill="#000000"></path>
                        <path d="M28.6246423,25.3191357 C28.1968555,26.5549211 26.4990075,27.5798294 25.1447188,27.8791389 C24.2182168,28.080946 23.0080014,28.2419383 18.9340527,26.5141062 C13.7230335,24.3055649 10.3672346,18.8885166 10.1056862,18.5370547 C9.85522038,18.1855928 8,15.668672 8,13.0655864 C8,10.4625008 9.29222638,9.19497048 9.81310665,8.6507714 C10.2408934,8.20407465 10.9479607,8 11.6262133,8 C11.845648,8 12.0429175,8.01133748 12.2202385,8.02040747 C12.7411187,8.04308243 13.0026671,8.07482737 13.3462265,8.91606845 C13.7740132,9.97045417 14.8157738,12.5735398 14.9398984,12.8411043 C15.0662396,13.1086689 15.1925808,13.4714682 15.0152599,13.8229302 C14.8490215,14.1857295 14.7027317,14.3467218 14.4411833,14.6551012 C14.1796349,14.9634807 13.9313856,15.1993003 13.6698372,15.5303548 C13.4304539,15.8183268 13.1600395,16.1267063 13.4614851,16.6595679 C13.7629307,17.181092 14.8046912,18.9202615 16.3385174,20.3170392 C18.3178624,22.1196986 19.922617,22.6956426 20.4966935,22.9405322 C20.9244803,23.1219319 21.434278,23.0788495 21.7468062,22.7387251 C22.1435618,22.3010983 22.6334109,21.5754995 23.1321261,20.8612382 C23.486768,20.3487841 23.9345033,20.2852942 24.4044038,20.4666939 C24.8831704,20.6367561 27.4166434,21.9178915 27.9375237,22.1831885 C28.4584039,22.4507531 28.8019633,22.5777328 28.9283044,22.802215 C29.0524291,23.0266971 29.0524291,24.0810828 28.6246423,25.3191357 Z" id="Path" fill="#FAFAFA"></path>
                    </g>
                </g>
            </g>
        </g>
    </g>
</svg>